<svg width="20" height="21" viewBox="0 0 20 21" fill="none" xmlns="http://www.w3.org/2000/svg">
<path fill-rule="evenodd" clip-rule="evenodd" d="M0 4.37574L7 12.3757V20.943L13 18.693V12.3757L20 4.37574V2C20 0.89543 19.1046 0 18 0H2C0.89543 0 0 0.89543 0 2V4.37574ZM18 1.99993V2.99995H2V1.99993H18ZM3.20378 4.99995H16.7962L11.5461 11H8.45386L3.20378 4.99995ZM9 13V18.0569L11 17.3069V13H9Z" fill="black" fill-opacity="0.9"/>
<path fill-rule="evenodd" clip-rule="evenodd" d="M0 4.37574L7 12.3757V20.943L13 18.693V12.3757L20 4.37574V2C20 0.89543 19.1046 0 18 0H2C0.89543 0 0 0.89543 0 2V4.37574ZM18 1.99993V2.99995H2V1.99993H18ZM3.20378 4.99995H16.7962L11.5461 11H8.45386L3.20378 4.99995ZM9 13V18.0569L11 17.3069V13H9Z" fill="white"/>
</svg>
