<svg width="21" height="40" fill="none" xmlns="http://www.w3.org/2000/svg"><path d="M.656 21.304H5.09v18.048a.65.65 0 00.656.648h7.524a.65.65 0 00.656-.648V21.39h5.098a.648.648 0 00.648-.57l.774-6.646a.64.64 0 00-.158-.5.652.652 0 00-.49-.218h-5.872V9.293c0-1.257.688-1.89 2.031-1.89h3.841a.65.65 0 00.656-.648V.656a.65.65 0 00-.656-.648h-5.295c-.04 0-.119-.008-.245-.008-.917 0-4.11.18-6.631 2.468C4.829 5.02 5.217 8.059 5.31 8.583v4.873H.656a.65.65 0 00-.656.648v6.56c0 .351.292.64.656.64z" fill="#385C8E"/></svg>