<svg width="41" height="26" fill="none" xmlns="http://www.w3.org/2000/svg"><path d="M39.502 10.348h-2.545V7.833a.962.962 0 00-.964-.953h-3.43c-.53 0-.965.43-.965.953v2.515h-2.544c-.53 0-.965.43-.965.952v3.39c0 .523.435.952.965.952h2.545v2.515c0 .523.434.953.964.953h3.43c.53 0 .964-.43.964-.953v-2.515h2.545c.53 0 .964-.43.964-.952V11.3a.962.962 0 00-.964-.952zM13.088 6.193c1.17 0 2.293.312 3.249.898l1.09.742a.98.98 0 001.226-.11L21.846 4.6a.954.954 0 00-.127-1.468l-1.857-1.258-.119-.07-1.802-.86c-.023-.007-.047-.022-.07-.03A13.173 13.173 0 0013.024 0C9.587 0 6.347 1.304 3.897 3.67 1.407 6.076.024 9.34 0 12.87c-.023 3.53 1.312 6.818 3.77 9.254 2.435 2.421 5.896 3.803 9.485 3.803 3.556 0 6.883-1.366 9.144-3.74 1.786-1.882 2.885-4.397 3.177-7.271 0-.023.008-.055.008-.078l.032-2.585c0-.055 0-.11-.008-.156l-.143-.883a.957.957 0 00-.948-.804H13.38c-.53 0-.964.43-.964.953v3.803c0 .523.434.953.964.953h5.675c-.261.562-.672 1.155-1.186 1.71-1.13 1.21-2.814 1.898-4.623 1.898-1.85 0-3.62-.719-4.853-1.96-2.577-2.593-2.545-7.115.063-9.676a6.66 6.66 0 014.631-1.898z" fill="#D7143A"/></svg>