<svg width="24" height="24" fill="none" xmlns="http://www.w3.org/2000/svg"><path d="M22.571 1.429a4.847 4.847 0 00-6.873 0l-5.043 5.005 1.57 1.57 5.042-5.006c1.009-1.009 2.69-1.009 3.698 0 1.009 1.008 1.009 2.69 0 3.698l-5.79 5.827c-1.009 1.008-2.69 1.008-3.698 0a2.282 2.282 0 01-.448-.598l-1.606 1.606c.149.187.298.374.485.56a4.847 4.847 0 006.873 0l5.79-5.789a4.916 4.916 0 000-6.873zm-10.347 15.09l-.037-.149-.448-.448-5.043 5.043c-1.009 1.009-2.69 1.009-3.698 0-1.009-1.009-1.009-2.69 0-3.698l5.827-5.79c1.008-1.008 2.69-1.008 3.698 0 .299.299.486.598.598.971l1.68-1.68a4.964 4.964 0 00-.71-.897 4.847 4.847 0 00-6.872 0l-5.79 5.827a4.847 4.847 0 000 6.873 4.847 4.847 0 006.873 0l5.005-5.043-1.046-1.045-.037.037z" fill="#343434"/></svg>