<svg width="80" height="80" viewBox="0 0 80 80" fill="none" xmlns="http://www.w3.org/2000/svg">
<g id="Telegram">
<path id="Oval" fill-rule="evenodd" clip-rule="evenodd" d="M40 80C62.0914 80 80 62.0914 80 40C80 17.9086 62.0914 0 40 0C17.9086 0 0 17.9086 0 40C0 62.0914 17.9086 80 40 80Z" fill="url(#paint0_linear)"/>
<path id="Shape" fill-rule="evenodd" clip-rule="evenodd" d="M32.6661 58.3337C31.3702 58.3337 31.5904 57.8444 31.1435 56.6105L27.3328 44.069L56.6661 26.667" fill="#C8DAEA"/>
<path id="Shape_2" fill-rule="evenodd" clip-rule="evenodd" d="M32.6669 58.3334C33.6669 58.3334 34.1087 57.8761 34.6669 57.3334L40.0002 52.1474L33.3475 48.1357" fill="#A9C9DD"/>
<path id="Shape_3" fill-rule="evenodd" clip-rule="evenodd" d="M33.3462 48.1362L49.4662 60.0458C51.3057 61.0608 52.6333 60.5353 53.0915 58.338L59.6532 27.417C60.325 24.7236 58.6265 23.502 56.8667 24.3009L18.3367 39.1579C15.7067 40.2128 15.722 41.6801 17.8573 42.3339L27.745 45.42L50.636 30.9784C51.7166 30.3231 52.7084 30.6754 51.8944 31.3978" fill="url(#paint1_linear)"/>
</g>
<defs>
<linearGradient id="paint0_linear" x1="30.004" y1="3.336" x2="10.004" y2="50" gradientUnits="userSpaceOnUse">
<stop stop-color="#37AEE2"/>
<stop offset="1" stop-color="#1E96C8"/>
</linearGradient>
<linearGradient id="paint1_linear" x1="34.9922" y1="42.4565" x2="39.2661" y2="56.2814" gradientUnits="userSpaceOnUse">
<stop stop-color="#EFF7FC"/>
<stop offset="1" stop-color="white"/>
</linearGradient>
</defs>
</svg>
