<svg width="25" height="40" fill="none" xmlns="http://www.w3.org/2000/svg"><path fill-rule="evenodd" clip-rule="evenodd" d="M12.066 20.234c5.65.024 10.274-4.459 10.298-9.988A10.177 10.177 0 0012.184 0C6.534-.016 1.941 4.498 1.918 10.098c-.04 5.537 4.552 10.12 10.148 10.136zm.079-15.064c2.774 0 4.995 2.187 5.003 4.943.008 2.75-2.205 4.952-4.98 4.96-2.781.007-5.018-2.164-5.042-4.905C7.11 7.396 9.347 5.17 12.145 5.17z" fill="#F2720C"/><path fill-rule="evenodd" clip-rule="evenodd" d="M23.66 24.21c.814-.829.822-1.867.158-2.937-.577-.937-1.588-1.328-2.671-1.054-.553.14-1.035.421-1.486.757-4.529 3.015-10.733 2.929-15.238-.14a4.738 4.738 0 00-.695-.406c-1.25-.586-2.45-.313-3.17.702-.837 1.187-.735 2.343.324 3.35.277.258.585.485.886.72 2.418 1.873 5.247 2.63 8.385 2.959-.221.234-.363.398-.514.546-2.3 2.28-4.6 4.561-6.907 6.834-.474.468-.822.992-.854 1.679-.047 1.015.593 2.023 1.589 2.499.94.453 1.905.312 2.719-.484A312.84 312.84 0 0011.56 33.9c.442-.445.68-.547 1.185-.031 1.723 1.78 3.518 3.498 5.272 5.248.459.46.972.78 1.636.827 1.043.07 2.11-.593 2.593-1.593.434-.921.268-1.897-.522-2.686-2.324-2.32-4.663-4.623-6.995-6.935-.166-.164-.284-.297-.545-.578 1.715-.203 3.454-.508 5.027-1.117 1.69-.632 3.193-1.554 4.45-2.827z" fill="#F2720C"/></svg>