<svg width="41" height="33" fill="none" xmlns="http://www.w3.org/2000/svg"><path d="M39.548 3.78c-.633.28-1.289.515-1.96.703A8.553 8.553 0 0039.35 1.42a.647.647 0 00-.956-.75 15.631 15.631 0 01-4.553 1.781A8.77 8.77 0 0027.764 0c-4.79 0-8.686 3.85-8.686 8.583 0 .374.023.741.07 1.109a22.314 22.314 0 01-15.26-8.005.65.65 0 00-.554-.234.648.648 0 00-.514.32A8.458 8.458 0 001.635 6.09c0 2.07.75 4.03 2.07 5.56a7.721 7.721 0 01-1.161-.515.645.645 0 00-.64.008.653.653 0 00-.333.547v.117c0 3.085 1.684 5.865 4.253 7.38a9.642 9.642 0 01-.664-.094.671.671 0 00-.609.203.644.644 0 00-.134.625c.948 2.936 3.398 5.092 6.362 5.755a15.481 15.481 0 01-8.212 2.32c-.616 0-1.233-.04-1.841-.11a.647.647 0 00-.688.422.638.638 0 00.261.758 23.66 23.66 0 0012.67 3.67c8.843 0 14.376-4.123 17.458-7.575 3.85-4.31 6.054-10.02 6.054-15.658 0-.234 0-.476-.008-.71a16.933 16.933 0 003.889-4.07.65.65 0 00-.04-.772.676.676 0 00-.774-.172z" fill="#73A1FB"/></svg>