<svg width="41" height="23" fill="none" xmlns="http://www.w3.org/2000/svg"><path d="M34.823 14.385c1.343 1.296 2.758 2.515 3.96 3.936.529.632 1.035 1.288 1.422 2.023.545 1.046.055 2.194-.893 2.256h-5.896c-1.518.125-2.735-.476-3.754-1.507-.814-.82-1.573-1.694-2.356-2.546-.324-.343-.656-.671-1.059-.929-.806-.515-1.501-.36-1.96.469-.466.843-.577 1.78-.624 2.717-.063 1.375-.482 1.734-1.881 1.797-2.98.14-5.81-.305-8.433-1.789-2.316-1.312-4.11-3.155-5.675-5.248C4.631 11.488 2.3 7.005.205 2.405-.269 1.367.08.812 1.241.79c1.92-.04 3.849-.031 5.77 0 .782.008 1.295.453 1.604 1.187 1.043 2.53 2.315 4.935 3.912 7.161.427.594.861 1.187 1.478 1.601.68.46 1.201.312 1.525-.445.206-.477.293-.992.34-1.5.15-1.757.174-3.514-.095-5.263-.166-1.093-.79-1.804-1.889-2.007-.56-.11-.482-.313-.205-.633.474-.546.917-.89 1.81-.89h6.662c1.052.203 1.28.672 1.423 1.71l.008 7.31c-.008.406.205 1.6.94 1.866.593.188.98-.273 1.328-.648 1.597-1.671 2.735-3.647 3.754-5.7.45-.899.838-1.836 1.217-2.773.277-.695.72-1.03 1.51-1.015l6.394.023c.19 0 .38 0 .569.031 1.083.18 1.375.64 1.043 1.687-.53 1.632-1.549 2.999-2.553 4.366-1.067 1.46-2.212 2.874-3.272 4.342-.972 1.343-.9 2.022.309 3.186z" fill="#436EAB"/></svg>